<?xml version="1.0" encoding="utf-8"?>
<!-- Generator: Adobe Illustrator 17.1.0, SVG Export Plug-In . SVG Version: 6.00 Build 0)  -->
<!DOCTYPE svg PUBLIC "-//W3C//DTD SVG 1.1//EN" "http://www.w3.org/Graphics/SVG/1.1/DTD/svg11.dtd">
<svg version="1.1" id="Layer_1" xmlns="http://www.w3.org/2000/svg" xmlns:xlink="http://www.w3.org/1999/xlink" x="0px" y="0px"
	 viewBox="0 0 500 500" enable-background="new 0 0 500 500" xml:space="preserve">
<path fill="#007BB6" d="M51.3,446.7h32.6v-97.8H51.3V446.7z M85.9,318.8c-0.1-4.9-1.8-8.9-5.1-12.1c-3.3-3.2-7.7-4.8-13.1-4.8
	s-9.9,1.6-13.3,4.8c-3.4,3.2-5.1,7.2-5.1,12.1c0,4.8,1.7,8.8,5,12c3.3,3.2,7.7,4.9,13,4.9h0.1c5.5,0,10-1.6,13.4-4.9
	C84.2,327.6,85.9,323.6,85.9,318.8z M168.4,446.7h32.6v-56.1c0-14.5-3.4-25.4-10.3-32.8c-6.9-7.4-15.9-11.1-27.2-11.1
	c-12.8,0-22.6,5.5-29.5,16.5h0.3v-14.2h-32.6c0.3,6.2,0.3,38.8,0,97.8h32.6v-54.7c0-3.6,0.3-6.2,1-7.9c1.4-3.3,3.5-6.1,6.3-8.4
	s6.3-3.5,10.4-3.5c10.9,0,16.3,7.4,16.3,22.1V446.7z M234.3,306.1v135.3c0,11.2-4,20.7-11.9,28.7c-7.9,7.9-17.5,11.9-28.7,11.9H58.4
	c-11.2,0-20.7-4-28.7-11.9c-7.9-7.9-11.9-17.5-11.9-28.7V306.1c0-11.2,4-20.7,11.9-28.7c7.9-7.9,17.5-11.9,28.7-11.9h135.3
	c11.2,0,20.7,4,28.7,11.9C230.3,285.4,234.3,294.9,234.3,306.1z"/>
<path fill="#3A5895" d="M194.4,17.8c11.2,0,20.8,4,28.8,12c8,8,12,17.6,12,28.8v135.8c0,11.2-4,20.8-12,28.8c-8,8-17.6,12-28.8,12
	h-26.6v-84.2h28.1l4.2-32.8h-32.4V97.1c0-5.3,1.1-9.2,3.3-11.9s6.5-4,12.9-4l17.3-0.1V51.9c-5.9-0.8-14.3-1.3-25.2-1.3
	c-12.8,0-23.1,3.8-30.8,11.3c-7.7,7.5-11.5,18.2-11.5,32v24.2h-28.3v32.8h28.3V235H58.6c-11.2,0-20.8-4-28.8-12
	c-8-8-12-17.6-12-28.8V58.5c0-11.2,4-20.8,12-28.8s17.6-12,28.8-12H194.4z"/>
<path fill="#315F85" d="M459,204v-92.9h-19.4c1.9,6,2.9,12.3,2.9,18.8c0,12-3.1,23.2-9.2,33.3s-14.4,18.2-24.9,24.2
	s-22,8.9-34.4,8.9c-18.8,0-34.9-6.5-48.3-19.4c-13.4-13-20.1-28.6-20.1-47c0-6.5,1-12.8,2.9-18.8h-20.2V204c0,2.5,0.8,4.6,2.5,6.2
	c1.7,1.7,3.8,2.5,6.2,2.5h153.3c2.4,0,4.4-0.8,6.2-2.5C458.2,208.6,459,206.5,459,204z M418.3,127.6c0-11.9-4.3-22-13-30.3
	c-8.7-8.4-19.1-12.9-31.3-12.5c-17,0.4-33.1,10.1-36.8,17.5c-5.9,11.6-7.3,13.5-7.3,25.4s4.3,22,13,30.3c8.7,8.4,19,12.5,31.2,12.5
	c12.2,0,22.7-4.2,31.3-12.5C414,149.6,418.3,139.5,418.3,127.6z M459,76V52.3c0-2.7-1-5-2.9-7c-1.9-2-4.3-2.9-7-2.9h-24.9
	c-2.8,0-5.1,1-7,2.9c-1.9,2-2.9,4.3-2.9,7V76c0,2.8,1,5.1,2.9,7c1.9,1.9,4.3,2.9,7,2.9h24.9c2.8,0,5.1-1,7-2.9
	C458.1,81.1,459,78.8,459,76z M484,46.2v163.7c0,7.7-2.8,14.4-8.3,19.9c-5.5,5.5-12.2,8.3-19.9,8.3H292c-7.7,0-14.4-2.8-19.9-8.3
	c-5.5-5.5-8.3-12.2-8.3-19.9V46.2c0-7.7,2.8-14.4,8.3-19.9c5.5-5.5,12.2-8.3,19.9-8.3h163.7c7.7,0,14.4,2.8,19.9,8.3
	S484,38.4,484,46.2z"/>
<path fill="#DE5087" d="M410.4,458.9c-3.9-22.6-10.5-45.9-19.7-69.9h-0.3l-0.3,0.1c-1.5,0.6-3.5,1.3-6,2.3c-2.5,1-7.3,3.3-14.2,6.9
	c-6.9,3.6-13.3,7.4-19.2,11.5c-5.9,4.1-12,9.4-18.4,16.1c-6.4,6.6-11.2,13.6-14.5,20.8l-2.1-1.5c17.2,14,36.8,21.1,58.7,21.1
	C386.8,466.2,398.8,463.8,410.4,458.9z M384.4,373.7c-2-4.6-4.4-9.8-7.4-15.6c-29.1,8.7-60.6,13.1-94.5,13.1
	c-0.1,0.7-0.1,1.6-0.1,2.9c0,11.6,2.1,22.7,6.2,33.2c4.1,10.5,9.9,20,17.4,28.3c4.7-8.3,10.5-16.1,17.3-23.4
	c6.9-7.3,13.6-13.1,20-17.5c6.5-4.4,12.6-8.2,18.3-11.4s10.4-5.4,14-6.7l5.2-1.8c0.4-0.1,1-0.3,1.8-0.5
	C383.4,374.1,384,373.9,384.4,373.7z M369.4,343.9c-11.2-19.9-22.7-37.6-34.3-53.1c-12.9,6.1-23.9,14.8-32.9,26.1
	c-9,11.3-15,24.1-18,38.2C312.5,355.1,340.9,351.4,369.4,343.9z M465.4,388.7c-19.7-5.6-38.8-7-57.4-4.1c8.1,22.4,14.1,44.3,18,65.9
	c10.4-7,19.1-15.9,26-26.6C458.9,413.2,463.4,401.4,465.4,388.7z M352.4,284.6c-0.1,0-0.2,0-0.3,0.1
	C352.2,284.7,352.3,284.6,352.4,284.6z M435.2,305c-17.3-15.4-37.6-23-60.8-23c-7.1,0-14.4,0.9-21.8,2.7
	c12.3,15.9,23.8,33.8,34.5,53.6c6.5-2.4,12.5-5.3,18.3-8.5c5.7-3.2,10.2-6.1,13.6-8.6c3.3-2.5,6.4-5.2,9.2-8s4.6-4.7,5.3-5.7
	L435.2,305z M466.5,373.1c-0.3-21.7-7.3-40.9-20.9-57.6l-0.1,0.1c-0.8,1.1-1.7,2.3-2.7,3.4c-0.9,1.2-3,3.3-6.1,6.2s-6.5,5.8-10,8.5
	s-8.2,5.7-14,9.1c-5.9,3.4-12,6.4-18.5,9.1c2.3,5,4.4,9.4,6.2,13.3c0.2,0.6,0.5,1.4,0.9,2.5s0.8,1.8,1.1,2.3c3.4-0.5,6.9-0.8,10.5-1
	s7-0.3,10.3-0.3s6.5,0.1,9.7,0.2s6.2,0.3,9,0.6c2.8,0.2,5.5,0.5,7.9,0.8s4.7,0.6,6.7,0.9s3.7,0.6,5.1,0.8s2.6,0.4,3.5,0.6
	L466.5,373.1z M482.3,374.1c0,19.6-4.8,37.6-14.5,54.1c-9.6,16.5-22.7,29.6-39.3,39.3C412,477.1,394,482,374.4,482
	s-37.6-4.8-54.1-14.5c-16.5-9.6-29.6-22.7-39.3-39.3c-9.6-16.5-14.5-34.6-14.5-54.1c0-19.6,4.8-37.6,14.5-54.1
	c9.6-16.5,22.7-29.6,39.3-39.3c16.5-9.6,34.6-14.5,54.1-14.5s37.6,4.8,54.1,14.5c16.5,9.6,29.6,22.7,39.3,39.3
	C477.5,336.5,482.3,354.5,482.3,374.1z"/>
</svg>
